<svg xmlns="http://www.w3.org/2000/svg" xml:space="preserve" viewBox="0 0 522.667 522.667" class="w-12 h-12 my-1 fill-gray-800">
            <path d="M309.333 240h149.333c5.888 0 10.667-4.779 10.667-10.667s-4.779-10.667-10.667-10.667H309.333c-5.888 0-10.667 4.779-10.667 10.667S303.445 240 309.333 240z"/>
    <path d="M221.824 368H53.333c-17.643 0-32-14.357-32-32V90.667h469.333v209.344c0 5.888 4.779 10.667 10.667 10.667S512 305.899 512 300.011V58.667c0-29.419-23.915-53.333-53.333-53.333H53.333C23.915 5.333 0 29.248 0 58.667V336c0 29.419 23.915 53.333 53.333 53.333h168.491a10.658 10.658 0 0 0 10.667-10.667c0-5.887-4.779-10.666-10.667-10.666zM21.333 58.667c0-17.643 14.357-32 32-32h405.333c17.643 0 32 14.357 32 32v10.667H21.333V58.667z"/>
    <path d="M309.333 176h64c5.888 0 10.667-4.779 10.667-10.667s-4.779-10.667-10.667-10.667h-64c-5.888 0-10.667 4.779-10.667 10.667S303.445 176 309.333 176zm149.334-23.189H416c-5.888 0-10.667 4.779-10.667 10.667s4.779 10.667 10.667 10.667h42.667c5.888 0 10.667-4.779 10.667-10.667s-4.779-10.667-10.667-10.667zm-53.334 257.856h-42.667c-5.888 0-10.667 4.779-10.667 10.667s4.779 10.667 10.667 10.667h42.667c5.888 0 10.667-4.779 10.667-10.667 0-5.889-4.779-10.667-10.667-10.667z"/>
    <path d="M508.267 376.107c1.493-1.259 14.4-12.8 14.4-29.44 0-8.917-6.635-15.147-16.128-15.147-5.355 0-14.528 2.752-22.421 7.296-10.432-22.016-27.499-41.536-39.723-47.616-8.085-4.032-35.627-8.533-60.395-8.533s-52.309 4.501-60.416 8.533c-12.181 6.08-29.248 25.6-39.701 47.616-7.915-4.544-17.088-7.296-22.443-7.296-4.053 0-7.531 1.045-10.325 3.157-3.712 2.795-5.781 7.061-5.781 11.989 0 16.64 12.928 28.181 14.4 29.44 1.152.981 2.475 1.6 3.84 2.027-5.099 14.165-7.573 29.845-7.573 43.2 0 15.936 1.472 43.115 10.667 57.003V496c0 11.968 9.365 21.333 21.333 21.333h21.333c11.968 0 21.333-9.365 21.333-21.333v-7.232C343.552 491.989 363.648 496 384 496s40.448-4.011 53.333-7.232V496c0 11.968 9.365 21.333 21.333 21.333H480c11.968 0 21.333-9.365 21.333-21.333v-17.664C510.528 464.448 512 437.269 512 421.333c0-13.355-2.475-29.056-7.573-43.2 1.365-.426 2.688-1.045 3.84-2.026zm-175.19-65.792C337.067 308.48 359.829 304 384 304s46.933 4.48 50.859 6.272c8.085 4.053 26.859 25.323 34.325 48.512C449.131 361.6 401.728 368 384 368s-65.152-6.4-85.205-9.216c7.466-23.189 26.24-44.459 34.282-48.469zm-60.245 48.832c-.683-.683-1.728-1.792-2.965-3.605 1.408.661 2.752 1.408 4.011 2.155-.342.49-.705.959-1.046 1.45zm36.48 136.874h-21.333v-10.688h21.333v10.688zM480 496h-21.333v-10.667H480V496zm4.907-32H448c-1.131 0-2.261.192-3.371.533-.299.107-30.848 10.133-60.629 10.133s-60.331-10.027-60.651-10.091c-.277-.085-.576 0-.875-.064-.811-.192-1.6-.491-2.475-.491H283.05c-2.795-6.379-5.739-21.077-5.739-42.645 0-3.392.256-6.997.64-10.645 14.336.405 31.381 5.248 31.381 10.624 0 5.888 4.779 10.667 10.667 10.667s10.667-4.779 10.667-10.667c0-26.069-35.2-30.869-48.533-31.765a83.436 83.436 0 0 1 4.245-11.029c.021 0 .043.021.064.021 2.987.427 73.408 10.752 97.557 10.752s94.571-10.325 97.557-10.773c.021 0 .021-.021.043-.021a83.297 83.297 0 0 1 4.245 11.029c-13.333.896-48.512 5.717-48.512 31.765 0 5.888 4.779 10.667 10.667 10.667s10.667-4.779 10.667-10.667c0-5.483 16.939-10.176 31.36-10.624.384 3.648.64 7.253.64 10.624.001 21.59-2.965 36.288-5.759 42.667zm10.24-104.875c-.341-.491-.683-.96-1.045-1.429 1.259-.747 2.624-1.515 4.011-2.176a23.046 23.046 0 0 1-2.966 3.605zM258.901 307.84c3.947-4.395 3.563-11.115-.811-15.061-7.104-6.379-15.68-10.944-24.789-13.227l-28.629-7.147c19.52-4.395 29.845-10.368 30.357-10.688 2.944-1.749 4.736-4.949 5.035-8.384.299-3.413-1.216-6.912-3.819-9.152-.149-.107-14.549-12.949-14.549-56.597 0-43.989-11.392-66.304-33.856-66.304h-.384C180.203 114.773 173.739 112 160 112c-19.349 0-61.696 19.051-61.696 75.584 0 43.52-14.315 56.427-14.272 56.427a10.572 10.572 0 0 0-4.245 9.067 10.62 10.62 0 0 0 5.141 8.597c.533.32 10.731 6.336 30.357 10.752l-28.565 7.125A58.11 58.11 0 0 0 42.667 336c0 5.888 4.779 10.667 10.667 10.667H214.55c5.888 0 10.667-4.779 10.667-10.667s-4.779-10.667-10.667-10.667l-148.971-.021a36.698 36.698 0 0 1 26.325-25.067l38.229-9.536a10.666 10.666 0 0 0 7.765-7.765l3.968-15.829c.725-2.923.192-6.037-1.515-8.533-1.685-2.517-4.373-4.181-7.381-4.608-11.093-1.536-19.712-3.84-25.835-5.909 6.08-10.923 12.523-29.739 12.523-60.459 0-44.821 33.707-54.251 40.363-54.251 9.472 0 10.539 1.067 15.659 6.165a10.656 10.656 0 0 0 7.531 3.115h4.651c6.229 0 12.523 13.909 12.523 44.971 0 30.677 6.443 49.515 12.501 60.437-6.165 2.048-14.784 4.373-25.835 5.909a10.625 10.625 0 0 0-7.36 4.608c-1.707 2.496-2.24 5.589-1.515 8.533l3.968 15.851a10.666 10.666 0 0 0 7.765 7.765l38.229 9.536c5.824 1.472 11.115 4.288 15.701 8.405 4.396 3.947 11.137 3.606 15.062-.81z"/>
</svg>
