<svg xmlns="http://www.w3.org/2000/svg" xml:space="preserve" viewBox="0 0 512 512"
     class="w-12 h-12 fill-gray-800">
            <path d="M458.667 341.333h-85.333c-5.888 0-10.667 4.779-10.667 10.667s4.779 10.667 10.667 10.667h85.333c5.888 0 10.667-4.779 10.667-10.667-.001-5.888-4.779-10.667-10.667-10.667zM309.333 234.667h64c5.888 0 10.667-4.779 10.667-10.667s-4.779-10.667-10.667-10.667h-64c-5.888 0-10.667 4.779-10.667 10.667s4.779 10.667 10.667 10.667zm106.667 0h42.667c5.888 0 10.667-4.779 10.667-10.667s-4.779-10.667-10.667-10.667H416c-5.888 0-10.667 4.779-10.667 10.667s4.779 10.667 10.667 10.667zm-106.667 64h149.333c5.888 0 10.667-4.779 10.667-10.667s-4.779-10.667-10.667-10.667H309.333c-5.888 0-10.667 4.779-10.667 10.667s4.779 10.667 10.667 10.667zm0 64h21.333c5.888 0 10.667-4.779 10.667-10.667s-4.779-10.667-10.667-10.667h-21.333c-5.888 0-10.667 4.779-10.667 10.667.001 5.888 4.779 10.667 10.667 10.667z"/>
    <path d="M458.667 64H53.333C23.936 64 0 87.936 0 117.333v277.333C0 424.064 23.936 448 53.333 448h405.333C488.064 448 512 424.064 512 394.667V117.333C512 87.936 488.064 64 458.667 64zm32 330.667c0 17.643-14.357 32-32 32H53.333c-17.643 0-32-14.357-32-32V149.333h469.333v245.334zm0-266.667H21.333v-10.667c0-17.643 14.357-32 32-32h405.333c17.643 0 32 14.357 32 32V128z"/>
    <path d="m53.333 405.333 213.333-.021c5.888 0 10.667-4.779 10.667-10.667 0-26.731-18.112-49.941-44.011-56.427l-28.608-7.168c19.499-4.395 29.803-10.368 30.315-10.688 2.965-1.749 4.757-4.928 5.056-8.363.299-3.413-1.195-6.891-3.819-9.131-.149-.128-14.549-12.971-14.549-56.597 0-44.011-11.392-66.325-33.856-66.325h-.384c-7.147-6.4-13.824-9.28-27.456-9.28-19.328 0-61.675 19.029-61.675 75.584 0 43.499-14.315 56.405-14.293 56.405-2.859 2.112-4.437 5.525-4.267 9.067a10.691 10.691 0 0 0 5.163 8.597c.512.299 10.709 6.336 30.315 10.752l-28.544 7.147c-25.941 6.485-44.053 29.696-44.053 56.448 0 2.837 1.109 5.568 3.115 7.552a10.737 10.737 0 0 0 7.551 3.115zm38.528-46.442 38.229-9.557c3.819-.939 6.827-3.925 7.765-7.744l3.968-15.829c.747-2.923.192-6.037-1.493-8.555a10.758 10.758 0 0 0-7.381-4.587c-11.072-1.536-19.691-3.84-25.813-5.909 6.08-10.923 12.523-29.739 12.523-60.459C119.659 201.429 153.365 192 160 192c9.493 0 10.56 1.067 15.616 6.144a10.744 10.744 0 0 0 7.552 3.115h4.629c6.229 0 12.523 13.909 12.523 44.992 0 30.677 6.443 49.493 12.501 60.416-6.144 2.069-14.784 4.395-25.813 5.931a10.67 10.67 0 0 0-7.36 4.608 10.63 10.63 0 0 0-1.493 8.555l3.968 15.851c.96 3.797 3.947 6.805 7.765 7.744l38.229 9.557a36.797 36.797 0 0 1 26.325 25.088l-188.885-.021a36.956 36.956 0 0 1 26.304-25.089z"/>
</svg>
